<svg xmlns="http://www.w3.org/2000/svg" viewBox="0 0 512 512">
  <defs>
    <linearGradient id="bgGrad" x1="0%" y1="0%" x2="100%" y2="100%">
      <stop offset="0%" style="stop-color:#6366f1"/>
      <stop offset="100%" style="stop-color:#8b5cf6"/>
    </linearGradient>
  </defs>
  <rect width="512" height="512" rx="100" fill="url(#bgGrad)"/>
  <g transform="translate(256, 256)">
    <!-- Dog face -->
    <ellipse cx="0" cy="20" rx="100" ry="90" fill="#fff"/>
    <!-- Ears -->
    <ellipse cx="-80" cy="-60" rx="45" ry="70" fill="#f0e6d3" transform="rotate(-20)"/>
    <ellipse cx="80" cy="-60" rx="45" ry="70" fill="#f0e6d3" transform="rotate(20)"/>
    <!-- Inner ears -->
    <ellipse cx="-80" cy="-50" rx="25" ry="40" fill="#e8d5c4" transform="rotate(-20)"/>
    <ellipse cx="80" cy="-50" rx="25" ry="40" fill="#e8d5c4" transform="rotate(20)"/>
    <!-- Eyes -->
    <circle cx="-35" cy="0" r="18" fill="#333"/>
    <circle cx="35" cy="0" r="18" fill="#333"/>
    <circle cx="-30" cy="-5" r="6" fill="#fff"/>
    <circle cx="40" cy="-5" r="6" fill="#fff"/>
    <!-- Nose -->
    <ellipse cx="0" cy="40" rx="22" ry="18" fill="#333"/>
    <ellipse cx="0" cy="36" rx="8" ry="5" fill="#666"/>
    <!-- Mouth -->
    <path d="M-15,55 Q0,70 15,55" stroke="#333" stroke-width="4" fill="none"/>
    <!-- Sound waves -->
    <path d="M120,20 Q140,20 140,0 Q140,-20 160,-20" stroke="#fff" stroke-width="8" fill="none" opacity="0.8"/>
    <path d="M130,40 Q160,40 160,10 Q160,-20 190,-20" stroke="#fff" stroke-width="6" fill="none" opacity="0.6"/>
    <path d="M140,60 Q180,60 180,20 Q180,-20 220,-20" stroke="#fff" stroke-width="4" fill="none" opacity="0.4"/>
  </g>
</svg>
