<?xml version="1.0" encoding="UTF-8"?>
<svg xmlns="http://www.w3.org/2000/svg" viewBox="0 0 24 24" fill="none" stroke="white" stroke-width="2" stroke-linecap="round" stroke-linejoin="round">
  <path d="M12 2c-.8 0-1.6.13-2.35.39A3.98 3.98 0 0 0 4 6c0 1.68 1.04 3.1 2.5 3.68A9.04 9.04 0 0 0 2 17v.5c0 .83.67 1.5 1.5 1.5h17c.83 0 1.5-.67 1.5-1.5V17a9.04 9.04 0 0 0-4.5-7.82A3.98 3.98 0 0 0 20 6a3.98 3.98 0 0 0-5.65-3.61A7.73 7.73 0 0 0 12 2M8 6a2 2 0 1 1 4 0 2 2 0 0 1-4 0m4 0a2 2 0 1 1 4 0 2 2 0 0 1-4 0M3 17c0-2.76 2.24-5 5-5h8c2.76 0 5 2.24 5 5v1H3z"/>
</svg>