<svg width="100%" height="100%" viewBox="0 0 220 80" xmlns="http://www.w3.org/2000/svg" preserveAspectRatio="xMidYMid meet">
  <!-- Background -->
  <rect width="220" height="80" fill="transparent"/>
  
  <!-- Three colorful icon squares -->
  <!-- Dog icon - Green -->
  <rect x="20" y="5" width="50" height="50" rx="8" fill="#8BC34A"/>
  <path d="M30 20 Q25 17 25 25 Q25 35 35 40 Q45 37 50 30 Q52 25 48 20 Q45 17 40 20 Q35 17 30 20 Z" fill="white"/>
  
  <!-- Bird/Leaf icon - Yellow -->
  <rect x="85" y="5" width="50" height="50" rx="8" fill="#FDD835"/>
  <path d="M95 45 Q90 40 90 35 Q90 30 95 25 Q100 22 105 25 Q110 28 120 35 Q122 40 120 45 Q115 48 110 45 Q105 42 100 45 Q95 48 95 45 Z" fill="white"/>
  
  <!-- Paw print icon - Orange -->
  <rect x="150" y="5" width="50" height="50" rx="8" fill="#FF7043"/>
  <ellipse cx="170" cy="40" rx="5" ry="7" fill="white"/>
  <ellipse cx="162" cy="25" rx="4" ry="5" fill="white"/>
  <ellipse cx="170" cy="20" rx="4" ry="5" fill="white"/>
  <ellipse cx="178" cy="25" rx="4" ry="5" fill="white"/>
  <ellipse cx="185" cy="30" rx="4" ry="5" fill="white"/>
  
  <!-- Talez Text -->
  <text x="110" y="70" font-family="Arial, sans-serif" font-size="22" font-weight="bold" fill="#424242" text-anchor="middle">
    Talez
  </text>
</svg>