<svg width="180" height="60" viewBox="0 0 180 60" xmlns="http://www.w3.org/2000/svg">
  <!-- Icon Background Squares -->
  <!-- Dog Icon -->
  <rect x="10" y="5" width="40" height="40" rx="8" fill="#8BC34A"/>
  <path d="M20 15 Q15 12 15 20 Q15 30 25 35 Q35 32 40 25 Q42 20 38 15 Q35 12 30 15 Q25 12 20 15 Z" fill="white"/>
  
  <!-- Bird/Leaf Icon -->
  <rect x="55" y="5" width="40" height="40" rx="8" fill="#FDD835"/>
  <path d="M65 35 Q60 30 60 25 Q60 20 65 15 Q70 12 75 15 Q80 18 85 25 Q87 30 85 35 Q80 38 75 35 Q70 32 65 35 Z" fill="white"/>
  
  <!-- Paw Print Icon -->
  <rect x="100" y="5" width="40" height="40" rx="8" fill="#FF7043"/>
  <ellipse cx="115" cy="30" rx="4" ry="6" fill="white"/>
  <ellipse cx="107" cy="20" rx="3" ry="4" fill="white"/>
  <ellipse cx="115" cy="15" rx="3" ry="4" fill="white"/>
  <ellipse cx="123" cy="20" rx="3" ry="4" fill="white"/>
  <ellipse cx="130" cy="25" rx="3" ry="4" fill="white"/>
  
  <!-- Talez Text -->
  <text x="10" y="58" font-family="Arial, sans-serif" font-size="16" font-weight="bold" fill="#424242" class="logo-text">
    Talez
  </text>
  
  <!-- Theme-aware styling -->
  <style>
    @media (prefers-color-scheme: dark) {
      .logo-text { fill: #E0E0E0; }
    }
  </style>
</svg>