<svg width="100%" height="100%" viewBox="0 0 80 80" xmlns="http://www.w3.org/2000/svg" preserveAspectRatio="xMidYMid meet">
  <!-- Background -->
  <rect width="80" height="80" fill="transparent"/>
  
  <!-- Three colorful icon squares in compact layout -->
  <!-- Dog icon - Green -->
  <rect x="15" y="8" width="18" height="18" rx="3" fill="#8BC34A"/>
  <path d="M18 13 Q16 12 16 15 Q16 18 20 20 Q24 18 26 16 Q27 15 25 13 Q24 12 22 13 Q20 12 18 13 Z" fill="white"/>
  
  <!-- Bird/Leaf icon - Yellow -->
  <rect x="37" y="8" width="18" height="18" rx="3" fill="#FDD835"/>
  <path d="M41 22 Q39 20 39 18 Q39 16 41 14 Q43 13 45 14 Q47 15 51 18 Q52 20 51 22 Q49 23 47 22 Q45 21 43 22 Q41 23 41 22 Z" fill="white"/>
  
  <!-- Paw print icon - Orange -->
  <rect x="26" y="30" width="18" height="18" rx="3" fill="#FF7043"/>
  <ellipse cx="32" cy="42" rx="2" ry="3" fill="white"/>
  <ellipse cx="29" cy="35" rx="1.5" ry="2" fill="white"/>
  <ellipse cx="32" cy="33" rx="1.5" ry="2" fill="white"/>
  <ellipse cx="35" cy="35" rx="1.5" ry="2" fill="white"/>
  <ellipse cx="38" cy="37" rx="1.5" ry="2" fill="white"/>
  
  <!-- Talez Text -->
  <text x="40" y="65" font-family="Arial, sans-serif" font-size="12" font-weight="bold" fill="#424242" text-anchor="middle">
    Talez
  </text>
</svg>