<svg width="600" height="400" xmlns="http://www.w3.org/2000/svg">
  <style>
    .bg { fill: #F3F4F6; }
    .card { fill: white; stroke: #E5E7EB; }
    .card-title { font: bold 14px sans-serif; fill: #374151; }
    .chart-bar { fill: #8B5CF6; }
    .nav { fill: #4C1D95; }
    .icon { fill: #A78BFA; }
    @media (prefers-color-scheme: dark) {
      .bg { fill: #1F2937; }
      .card { fill: #374151; stroke: #4B5563; }
      .card-title { fill: #E5E7EB; }
    }
  </style>
  <rect width="100%" height="100%" class="bg" />
  <rect x="0" y="0" width="150" height="400" class="nav" />
  <rect x="170" y="20" width="200" height="150" rx="5" class="card" />
  <text x="180" y="40" class="card-title">반려견 정보</text>
  <circle cx="220" cy="90" r="30" class="icon" />
  <rect x="390" y="20" width="190" height="150" rx="5" class="card" />
  <text x="400" y="40" class="card-title">예정된 수업</text>
  <rect x="410" y="60" width="150" height="20" rx="3" fill="#E5E7EB" />
  <rect x="410" y="90" width="150" height="20" rx="3" fill="#E5E7EB" />
  <rect x="410" y="120" width="150" height="20" rx="3" fill="#E5E7EB" />
  <rect x="170" y="190" width="410" height="180" rx="5" class="card" />
  <text x="180" y="210" class="card-title">훈련 진행 상황</text>
  <rect x="190" y="240" width="40" height="100" class="chart-bar" />
  <rect x="250" y="270" width="40" height="70" class="chart-bar" />
  <rect x="310" y="220" width="40" height="120" class="chart-bar" />
  <rect x="370" y="290" width="40" height="50" class="chart-bar" />
  <rect x="430" y="260" width="40" height="80" class="chart-bar" />
  <rect x="490" y="230" width="40" height="110" class="chart-bar" />
</svg>