<svg width="600" height="400" xmlns="http://www.w3.org/2000/svg">
  <style>
    .bg { fill: #F3F4F6; }
    .card { fill: white; stroke: #E5E7EB; }
    .map { fill: #D1D5DB; }
    .marker { fill: #8B5CF6; }
    .filter { fill: #EDE9FE; }
    .text { font: 14px sans-serif; fill: #374151; }
    .title { font: bold 16px sans-serif; fill: #111827; }
    @media (prefers-color-scheme: dark) {
      .bg { fill: #1F2937; }
      .card { fill: #374151; stroke: #4B5563; }
      .map { fill: #4B5563; }
      .text { fill: #E5E7EB; }
      .title { fill: #F9FAFB; }
      .filter { fill: #4C1D95; }
    }
  </style>
  <rect width="100%" height="100%" class="bg" />
  <rect x="50" y="50" width="500" height="300" rx="5" class="card" />
  <rect x="50" y="90" width="500" height="260" class="map" />
  <circle cx="200" cy="180" r="15" class="marker" />
  <path d="M200,165 L200,195 M185,180 L215,180" stroke="white" stroke-width="3" />
  <circle cx="300" cy="150" r="10" class="marker" />
  <path d="M300,140 L300,160 M290,150 L310,150" stroke="white" stroke-width="2" />
  <circle cx="390" cy="220" r="10" class="marker" />
  <path d="M390,210 L390,230 M380,220 L400,220" stroke="white" stroke-width="2" />
  <rect x="50" y="50" width="500" height="40" fill="white" />
  <text x="70" y="75" class="title">반려견 친화 장소</text>
  <rect x="350" y="55" width="80" height="30" rx="15" class="filter" />
  <text x="390" y="75" text-anchor="middle" class="text">카페</text>
  <rect x="440" y="55" width="80" height="30" rx="15" class="filter" />
  <text x="480" y="75" text-anchor="middle" class="text">공원</text>
</svg>