<svg width="600" height="400" xmlns="http://www.w3.org/2000/svg">
  <style>
    .bg { fill: #F3F4F6; }
    .card { fill: white; stroke: #E5E7EB; }
    .video-bg { fill: #1F2937; }
    .user-video { fill: #4C1D95; }
    .button { fill: #8B5CF6; }
    .text { font: 14px sans-serif; fill: #374151; }
    .title { font: bold 16px sans-serif; fill: #111827; }
    @media (prefers-color-scheme: dark) {
      .bg { fill: #1F2937; }
      .card { fill: #374151; stroke: #4B5563; }
      .text { fill: #E5E7EB; }
      .title { fill: #F9FAFB; }
    }
  </style>
  <rect width="100%" height="100%" class="bg" />
  <rect x="50" y="50" width="500" height="280" rx="5" class="card" />
  <text x="300" y="30" text-anchor="middle" class="title">화상 훈련 수업</text>
  <rect x="70" y="80" width="320" height="180" rx="5" class="video-bg" />
  <rect x="410" y="80" width="120" height="90" rx="5" class="user-video" />
  <circle cx="470" cy="125" r="25" fill="#E5E7EB" />
  <circle cx="470" cy="110" r="10" fill="#A78BFA" />
  <rect x="455" cy="120" width="30" height="20" rx="10" fill="#A78BFA" />
  <rect x="70" y="270" width="80" height="30" rx="5" class="button" />
  <text x="110" y="290" text-anchor="middle" fill="white">음소거</text>
  <rect x="160" y="270" width="80" height="30" rx="5" class="button" />
  <text x="200" y="290" text-anchor="middle" fill="white">비디오</text>
  <rect x="250" y="270" width="80" height="30" rx="5" class="button" />
  <text x="290" y="290" text-anchor="middle" fill="white">채팅</text>
  <rect x="340" y="270" width="80" height="30" rx="5" class="button" />
  <text x="380" y="290" text-anchor="middle" fill="white">화면공유</text>
  <rect x="430" y="270" width="80" height="30" rx="5" fill="#EF4444" />
  <text x="470" y="290" text-anchor="middle" fill="white">종료</text>
</svg>