<svg width="600" height="400" xmlns="http://www.w3.org/2000/svg">
  <style>
    .title { font: bold 24px sans-serif; fill: #333; }
    .pet { fill: #8B5CF6; }
    .paw { fill: #6D28D9; }
    .bg { fill: #F3F4F6; }
    .welcome-text { font: bold 32px sans-serif; fill: #4C1D95; }
    @media (prefers-color-scheme: dark) {
      .bg { fill: #1F2937; }
      .title { fill: #E5E7EB; }
      .welcome-text { fill: #A78BFA; }
    }
  </style>
  <rect width="100%" height="100%" rx="15" class="bg" />
  <text x="50%" y="80" text-anchor="middle" class="welcome-text">탈레즈에 오신 것을 환영합니다!</text>
  <g transform="translate(300, 220)">
    <path d="M-60,-60 C-50,-80 50,-80 60,-60 L60,0 C50,20 -50,20 -60,0 Z" class="pet" />
    <circle cx="-25" cy="-35" r="8" fill="white" />
    <circle cx="25" cy="-35" r="8" fill="white" />
    <circle cx="-25" cy="-35" r="3" fill="black" />
    <circle cx="25" cy="-35" r="3" fill="black" />
    <path d="M0,-15 C10,-10 10,0 0,5 C-10,0 -10,-10 0,-15" fill="black" />
    <path d="M-70,10 C-60,30 -40,30 -30,10 C-40,5 -60,5 -70,10" class="paw" />
    <path d="M30,10 C40,30 60,30 70,10 C60,5 40,5 30,10" class="paw" />
  </g>
</svg>